<svg width="18" height="18" viewBox="0 0 18 18" fill="none" xmlns="http://www.w3.org/2000/svg">
<g clip-path="url(#clip0_1_8161)">
<path d="M2.70026 1.81734C3.40369 0.834878 4.78824 0.596109 5.79282 1.28404L14.2717 7.09042C14.8924 7.51547 15.2228 8.19495 15.2187 8.88387C15.2219 9.57184 14.8915 10.25 14.2717 10.6745L5.79054 16.4824C4.78596 17.1703 3.4014 16.9315 2.69804 15.9491C1.99461 14.9666 2.23874 13.6125 3.24332 12.9246L9.14595 8.88244L3.24554 4.84184C2.24103 4.15391 1.99689 2.79979 2.70026 1.81734Z" fill="black" fill-opacity="0.1"/>
<path d="M15.5836 1.81929C14.8802 0.83683 13.4956 0.598062 12.4911 1.28599L4.01581 7.08986C3.39726 7.51349 3.06701 8.18969 3.0688 8.87618C3.06312 9.56676 3.39355 10.2484 4.01575 10.6745L12.4911 16.4784C13.4956 17.1664 14.8802 16.9276 15.5836 15.9451C16.287 14.9627 16.0429 13.6085 15.0383 12.9206L9.14113 8.88218L15.0383 4.84379C16.0429 4.15587 16.287 2.80175 15.5836 1.81929Z" fill="url(#paint0_linear_1_8161)"/>
<path d="M13.0137 6.22987L9.1421 3.57861L5.27056 6.22987L9.1421 8.88113L13.0137 6.22987Z" fill="#020204"/>
</g>
<defs>
<linearGradient id="paint0_linear_1_8161" x1="9.52703" y1="10.1304" x2="2.84915" y2="9.39962" gradientUnits="userSpaceOnUse">
<stop stop-color="#8F8FFF"/>
<stop offset="1" stop-color="#BABAFD"/>
</linearGradient>
<clipPath id="clip0_1_8161">
<rect width="16.6406" height="18" fill="white" transform="translate(0.679688)"/>
</clipPath>
</defs>
</svg>
