<svg width="167" height="219" viewBox="0 0 167 219" fill="none" xmlns="http://www.w3.org/2000/svg">
<path d="M96.75 71.25C96.75 70.3072 96.75 69.8358 97.0429 69.5429C97.3358 69.25 97.8072 69.25 98.75 69.25H119.25C120.193 69.25 120.664 69.25 120.957 69.5429C121.25 69.8358 121.25 70.3072 121.25 71.25V126.75C121.25 127.693 121.25 128.164 120.957 128.457C120.664 128.75 120.193 128.75 119.25 128.75H98.75C97.8072 128.75 97.3358 128.75 97.0429 128.457C96.75 128.164 96.75 127.693 96.75 126.75V71.25Z" stroke="#222222"/>
<path d="M103.75 115.25C103.75 115.014 103.75 114.896 103.823 114.823C103.896 114.75 104.014 114.75 104.25 114.75H113.75C113.986 114.75 114.104 114.75 114.177 114.823C114.25 114.896 114.25 115.014 114.25 115.25V121.25C114.25 121.486 114.25 121.604 114.177 121.677C114.104 121.75 113.986 121.75 113.75 121.75H104.25C104.014 121.75 103.896 121.75 103.823 121.677C103.75 121.604 103.75 121.486 103.75 121.25V115.25Z" stroke="#222222"/>
<path d="M103.75 79.75H114.25" stroke="#222222" stroke-linecap="round"/>
<path d="M103.75 90.25H114.25" stroke="#222222" stroke-linecap="round"/>
<path d="M96.75 107.75H121.25" stroke="#222222" stroke-linecap="round"/>
<path d="M110.75 69.25H77.75C76.8072 69.25 76.3358 69.25 76.0429 69.5429C75.75 69.8358 75.75 70.3072 75.75 71.25V126.75C75.75 127.693 75.75 128.164 76.0429 128.457C76.3358 128.75 76.8072 128.75 77.75 128.75H110.75" stroke="#222222" stroke-linecap="round"/>
<path d="M91.5 114.75H83.25C83.0143 114.75 82.8964 114.75 82.8232 114.823C82.75 114.896 82.75 115.014 82.75 115.25V121.25C82.75 121.486 82.75 121.604 82.8232 121.677C82.8964 121.75 83.0143 121.75 83.25 121.75H91.5" stroke="#222222"/>
<path d="M82.75 79.25C82.4739 79.25 82.25 79.4739 82.25 79.75C82.25 80.0261 82.4739 80.25 82.75 80.25V79.25ZM82.75 80.25H91.5V79.25H82.75V80.25Z" fill="#222222"/>
<path d="M82.75 89.75C82.4739 89.75 82.25 89.9739 82.25 90.25C82.25 90.5261 82.4739 90.75 82.75 90.75V89.75ZM82.75 90.75H91.5V89.75H82.75V90.75Z" fill="#222222"/>
<path d="M75.75 107.75H91.5" stroke="#222222"/>
<path d="M89.75 69.25H56.75C55.8072 69.25 55.3358 69.25 55.0429 69.5429C54.75 69.8358 54.75 70.3072 54.75 71.25V126.75C54.75 127.693 54.75 128.164 55.0429 128.457C55.3358 128.75 55.8072 128.75 56.75 128.75H89.75" stroke="#222222" stroke-linecap="round"/>
<path d="M70.5 114.75H62.25C62.0143 114.75 61.8964 114.75 61.8232 114.823C61.75 114.896 61.75 115.014 61.75 115.25V121.25C61.75 121.486 61.75 121.604 61.8232 121.677C61.8964 121.75 62.0143 121.75 62.25 121.75H70.5" stroke="#222222"/>
<path d="M61.75 79.25C61.4739 79.25 61.25 79.4739 61.25 79.75C61.25 80.0261 61.4739 80.25 61.75 80.25V79.25ZM61.75 80.25H70.5V79.25H61.75V80.25Z" fill="#222222"/>
<path d="M61.75 89.75C61.4739 89.75 61.25 89.9739 61.25 90.25C61.25 90.5261 61.4739 90.75 61.75 90.75V89.75ZM61.75 90.75H70.5V89.75H61.75V90.75Z" fill="#222222"/>
<path d="M54.75 107.75H70.5" stroke="#222222"/>
<path d="M123.507 12.806L117.36 18.6771C116.761 19.2493 116.739 20.1988 117.311 20.7978V20.7978C117.884 21.3969 118.833 21.4187 119.432 20.8465L125.579 14.9754C126.777 13.8309 126.82 11.9319 125.676 10.7338V10.7338C124.532 9.53572 122.633 9.49219 121.435 10.6366L113.842 17.8891C112.045 19.6058 111.979 22.4543 113.696 24.2514V24.2514C115.412 26.0486 118.261 26.1139 120.058 24.3973L125.482 19.2169" stroke="black" stroke-linecap="round"/>
<path d="M126.102 182.444L117.145 185.852L125.974 209.062C126.367 210.095 127.522 210.613 128.555 210.22L157.062 199.376C158.094 198.983 158.613 197.828 158.22 196.795L151.435 178.959L150.325 181.432L134.202 187.565L126.102 182.444Z" fill="#7E869E" fill-opacity="0.25"/>
<path d="M116.125 183.172C115.528 181.602 115.229 180.816 115.307 180.1C115.375 179.47 115.641 178.878 116.066 178.409C116.549 177.875 117.335 177.576 118.905 176.979L142.178 168.126C143.748 167.528 144.534 167.229 145.25 167.307C145.879 167.375 146.472 167.641 146.941 168.066C147.475 168.55 147.774 169.335 148.371 170.905L157.224 194.178C157.822 195.748 158.12 196.534 158.043 197.25C157.975 197.88 157.709 198.472 157.284 198.941C156.8 199.475 156.015 199.774 154.445 200.371L131.172 209.224C129.601 209.822 128.816 210.121 128.1 210.043C127.47 209.975 126.878 209.709 126.409 209.284C125.875 208.8 125.576 208.015 124.979 206.445L116.125 183.172Z" stroke="#222222" stroke-width="1.2"/>
<path d="M117.145 185.852L124.232 183.155C125.15 182.806 125.608 182.632 126.078 182.679C126.548 182.726 126.963 182.988 127.792 183.513L132.511 186.497C133.341 187.021 133.756 187.283 134.226 187.331C134.695 187.378 135.154 187.203 136.071 186.854L148.378 182.173C150.14 181.502 151.021 181.167 151.36 180.411C151.7 179.656 151.364 178.774 150.694 177.012L150.072 175.376" stroke="#222222" stroke-width="1.2"/>
<path d="M130.444 199.248L144.775 193.796" stroke="#222222" stroke-width="1.2" stroke-linecap="round"/>
<path d="M27.2039 165.792L20.1717 160.87C16.929 158.6 16.14 154.132 18.4095 150.889V150.889C20.679 147.646 25.1476 146.857 28.3903 149.127L35.4225 154.048" stroke="#222222" stroke-linecap="round" stroke-linejoin="round"/>
<path d="M42.3735 167.661L27.6264 157.34" stroke="#222222" stroke-linecap="round" stroke-linejoin="round"/>
<path d="M34.5774 170.952L41.6096 175.874C44.8523 178.143 49.3209 177.355 51.5904 174.112V174.112C53.8599 170.869 53.0709 166.4 49.8282 164.131L42.796 159.209" stroke="#222222" stroke-linecap="round" stroke-linejoin="round"/>
<path d="M37 18.5417V11.375H25C23.1144 11.375 22.1716 11.375 21.5858 11.9608C21 12.5466 21 13.4894 21 15.375V39.625C21 41.5106 21 42.4534 21.5858 43.0392C22.1716 43.625 23.1144 43.625 25 43.625H45C46.8856 43.625 47.8284 43.625 48.4142 43.0392C49 42.4534 49 41.5106 49 39.625V22.125H41C39.1144 22.125 38.1716 22.125 37.5858 21.6002C37 21.0755 37 20.2309 37 18.5417Z" fill="#7E869E" fill-opacity="0.25"/>
<path d="M37.3431 11.375H29C25.2288 11.375 23.3431 11.375 22.1716 12.4245C21 13.4741 21 15.1633 21 18.5417V36.4583C21 39.8367 21 41.5259 22.1716 42.5755C23.3431 43.625 25.2288 43.625 29 43.625H41C44.7712 43.625 46.6569 43.625 47.8284 42.5755C49 41.5259 49 39.8367 49 36.4583V21.8176C49 21.0853 49 20.7191 48.8478 20.3898C48.6955 20.0606 48.4065 19.8016 47.8284 19.2838L40.1716 12.4245C39.5935 11.9067 39.3045 11.6478 38.9369 11.5114C38.5694 11.375 38.1606 11.375 37.3431 11.375Z" stroke="#222222" stroke-width="1.2"/>
<path d="M29 29.291L41 29.291" stroke="#222222" stroke-width="1.2" stroke-linecap="round"/>
<path d="M29 36.459L37 36.459" stroke="#222222" stroke-width="1.2" stroke-linecap="round"/>
<path d="M37 11.375V18.5417C37 20.2309 37 21.0755 37.5858 21.6002C38.1716 22.125 39.1144 22.125 41 22.125H49" stroke="#222222" stroke-width="1.2"/>
</svg>
